<svg id="Capa_1" enable-background="new 0 0 501.97 501.97" height="512" viewBox="0 0 501.97 501.97" width="512" xmlns="http://www.w3.org/2000/svg"><g><g id="icon_11_"><path d="m291.529 12.586 19.16 47.816-19.16 86.793-40.55 48.949-39.577-36.454-16.663-55.199 3.82-64.223 12.843-31.245z" fill="#eeefee"/><path d="m269.699 47.076-7.499 14.275h-22.442l-7.279-15.053 12.721-16.112h10.388z" fill="#da364c"/><path d="m275.031 148.83-22.332 52.768-25.552-53.711 12.611-86.536h22.442z" fill="#ef5261"/><path d="m165.808 445.516c56.515 26.935 112.534 27.407 168.021 0l-15.274-76.38-133.77-7.866z" fill="#575b6d"/><path d="m306.521 397.84-30.161 22.332c-2.776 2.035-6.676 1.434-8.71-1.342-.24-.327-.447-.677-.619-1.045l-16.051-34.275-16.051 34.281c-1.457 3.118-5.167 4.464-8.284 3.007-.368-.172-.718-.379-1.045-.619l-30.161-22.332 27.774-133.305-14.943-160.032 42.711 76.374 42.711-76.374-14.937 160.02z" fill="#dbd8dd"/><path d="m446.541 434.173v16.546l-43.506 1.047v-17.593z" fill="none"/><path d="m55.416 434.173v16.546l43.507 1.047v-17.593z" fill="none"/><path d="m213.025 0h75.908l-16.779 30.204h-16.547-9.256l-27.658-9.721z" fill="#dbd8dd"/><path d="m280.834 60.402 13.658-43.971-2.088-13.425-3.471-3.006-33.326 30.204z" fill="#fff"/><path d="m221.124 60.402-13.658-43.971 2.088-13.425 3.471-3.006 33.326 30.204z" fill="#fff"/><g fill="#575b6d"><path d="m321.274 500.948 77.825-33.669-36.797-177.724 8.907-99.544 22.65 75.682c.415 1.392.642 2.833.673 4.285l4.114 171.174 51.379-1.157-3.41-192.22c-.039-2.227-.339-4.442-.894-6.599l-44.076-171.554c-2.34-9.418-8.63-17.368-17.257-21.811-21.95-9.936-44.771-17.826-68.171-23.568-3.793-1.485-7.213-3.784-10.021-6.734l-13.786-14.497-24.603 268.025c-.111 1.213-.066 2.435.135 3.636l36.191 216.945c1.128 6.749 7.514 11.306 14.263 10.179.99-.166 1.957-.451 2.878-.849z"/><path d="m180.684 500.948-77.849-33.675 36.822-177.718-8.907-99.544-22.638 75.67c-.416 1.392-.642 2.833-.673 4.285l-4.114 171.155-51.379-1.157 3.41-192.22c.039-2.227.339-4.442.894-6.599l46.56-181.202c.658-2.665 2.185-5.034 4.34-6.734 19.999-15.42 78.596-28.943 78.596-28.943 3.793-1.485 7.213-3.784 10.021-6.734l13.786-14.496 24.597 268.025c.111 1.213.066 2.435-.135 3.636l-36.191 216.945c-1.14 6.747-7.535 11.292-14.282 10.152-.983-.166-1.943-.45-2.858-.846z"/></g></g></g></svg>